<svg width="50" height="50" viewBox="0 0 50 50" fill="none" xmlns="http://www.w3.org/2000/svg">
<path d="M48.8662 42.1769H34.9683C36.5546 40.9619 37.805 39.3222 38.5434 37.4138C44.8376 36.9931 49.83 31.7391 49.83 25.34V24.1766C49.83 23.5505 49.3223 23.0429 48.6962 23.0429H40.6214L40.9642 20.204C41.003 19.882 40.9021 19.5587 40.6869 19.3159C40.4719 19.0731 40.163 18.9343 39.8386 18.9343H8.57422C8.2498 18.9343 7.94102 19.0731 7.72588 19.3159C7.51064 19.5587 7.40977 19.8819 7.44863 20.204L9.20684 34.7661C9.57363 37.8047 11.1633 40.4297 13.4444 42.1769H1.13379C0.507715 42.1769 0 42.6846 0 43.3107C0 46.7492 2.79736 49.5466 6.23584 49.5466H43.7642C47.2026 49.5466 50 46.7492 50 43.3107C50 42.6845 49.4923 42.1769 48.8662 42.1769ZM39.2058 34.7661L40.3474 25.3104H47.5623V25.34C47.5623 30.2757 43.9073 34.3731 39.1619 35.0694C39.1771 34.9685 39.1936 34.8681 39.2058 34.7661ZM11.458 34.4942L9.85313 21.2018H38.5594L36.9546 34.4942C36.4259 38.874 32.7004 42.1768 28.2887 42.1768H20.1238C15.7122 42.1769 11.9867 38.874 11.458 34.4942ZM43.7642 47.2789H6.23584C4.4416 47.2789 2.92168 46.0818 2.43252 44.4444H47.5675C47.0783 46.0819 45.5584 47.2789 43.7642 47.2789Z" fill="black"/>
<path d="M28.4459 27.2639L32.5921 30.8087L28.4459 34.3536C27.97 34.7605 27.9141 35.4762 28.321 35.9521C28.5453 36.2145 28.8632 36.3491 29.1832 36.3491C29.4439 36.3491 29.7058 36.2597 29.9194 36.0772L35.0736 31.6706C35.3256 31.4552 35.4706 31.1404 35.4706 30.8088C35.4706 30.4773 35.3256 30.1624 35.0736 29.947L29.9194 25.5405C29.4436 25.1335 28.7278 25.1896 28.3208 25.6656C27.914 26.1413 27.9699 26.857 28.4459 27.2639Z" fill="black"/>
<path d="M19.2293 36.3489C19.5492 36.3489 19.8674 36.2143 20.0915 35.9519C20.4984 35.4759 20.4425 34.7603 19.9664 34.3533L15.8203 30.8084L19.9665 27.2636C20.4427 26.8567 20.4986 26.1411 20.0917 25.6651C19.6849 25.1892 18.9691 25.1332 18.4932 25.54L13.339 29.9466C13.0869 30.162 12.9419 30.4769 12.9419 30.8084C12.9419 31.14 13.0869 31.4548 13.339 31.6702L18.4932 36.0768C18.7067 36.2596 18.9686 36.3489 19.2293 36.3489Z" fill="black"/>
<path d="M25.7174 26.1672C25.8339 26.2051 25.9521 26.2231 26.0684 26.2231C26.5461 26.2231 26.9905 25.9187 27.1464 25.4398L27.2219 25.2076C27.4156 24.6123 27.09 23.9725 26.4945 23.7787C25.8989 23.5851 25.2593 23.9107 25.0655 24.5062L24.99 24.7383C24.7963 25.3337 25.1219 25.9736 25.7174 26.1672Z" fill="black"/>
<path d="M21.9181 37.8386C22.0346 37.8766 22.1531 37.8947 22.2694 37.8947C22.747 37.8947 23.1913 37.5904 23.3473 37.1115L25.419 30.747C25.6127 30.1514 25.2871 29.5116 24.6917 29.3179C24.0959 29.1241 23.4564 29.4496 23.2627 30.0451L21.1911 36.4097C20.9971 37.0049 21.3227 37.6449 21.9181 37.8386Z" fill="black"/>
<path d="M21.9387 15.5329C21.9387 16.1591 22.4464 16.6667 23.0725 16.6667C23.6986 16.6667 24.2063 16.1591 24.2063 15.5329C24.2063 14.7841 24.5164 14.4559 25.0304 13.9119C25.6396 13.2673 26.4739 12.3844 26.4739 10.7336C26.4739 9.08272 25.6396 8.19971 25.0304 7.55498C24.5166 7.01113 24.2063 6.68272 24.2063 5.93369C24.2063 5.18467 24.5165 4.85625 25.0304 4.3124C25.6396 3.66777 26.4739 2.78477 26.4739 1.13379C26.4739 0.507617 25.9662 0 25.3401 0C24.714 0 24.2063 0.507617 24.2063 1.13379C24.2063 1.88291 23.896 2.21123 23.3822 2.75508C22.773 3.3999 21.9387 4.28281 21.9387 5.93369C21.9387 7.58457 22.773 8.46758 23.3822 9.1123C23.896 9.65615 24.2063 9.98457 24.2063 10.7336C24.2063 11.4824 23.8962 11.8106 23.3822 12.3546C22.773 12.9992 21.9387 13.8821 21.9387 15.5329Z" fill="black"/>
<path d="M29.1829 16.6667C29.8089 16.6667 30.3167 16.1591 30.3167 15.5329C30.3167 14.7841 30.6267 14.4558 31.1408 13.9119C31.75 13.2673 32.5842 12.3844 32.5842 10.7336C32.5842 10.1074 32.0765 9.59979 31.4504 9.59979C30.8244 9.59979 30.3167 10.1074 30.3167 10.7336C30.3167 11.4824 30.0066 11.8106 29.4925 12.3546C28.8834 12.9992 28.0491 13.8821 28.0491 15.5329C28.0491 16.1591 28.5566 16.6667 29.1829 16.6667Z" fill="black"/>
</svg>
