<svg width="50" height="44" viewBox="0 0 50 44" fill="none" xmlns="http://www.w3.org/2000/svg">
<path d="M17.04 33.3333H6.66667C6.22464 33.3333 5.80072 33.1577 5.48816 32.8452C5.17559 32.5326 5 32.1087 5 31.6667V3.33333H1.66667C1.22464 3.33333 0.800716 3.15774 0.488155 2.84518C0.175595 2.53262 0 2.10869 0 1.66667C0 1.22464 0.175595 0.800716 0.488155 0.488156C0.800716 0.175595 1.22464 0 1.66667 0H48.3333C48.7754 0 49.1993 0.175595 49.5118 0.488156C49.8244 0.800716 50 1.22464 50 1.66667C50 2.10869 49.8244 2.53262 49.5118 2.84518C49.1993 3.15774 48.7754 3.33333 48.3333 3.33333H45V31.6667C45 32.1087 44.8244 32.5326 44.5118 32.8452C44.1993 33.1577 43.7754 33.3333 43.3333 33.3333H32.98L38.7533 43.3333H34.9067L29.1333 33.3333H20.8867L15.1133 43.3333H11.2667L17.04 33.3333ZM41.6667 3.33333H8.33333V30H41.6667V3.33333ZM16.18 21.18C16.025 21.335 15.8411 21.4579 15.6386 21.5417C15.4361 21.6256 15.2191 21.6688 15 21.6688C14.7809 21.6688 14.5639 21.6256 14.3614 21.5417C14.1589 21.4579 13.975 21.335 13.82 21.18C13.665 21.025 13.5421 20.8411 13.4583 20.6386C13.3744 20.4361 13.3312 20.2191 13.3312 20C13.3312 19.7809 13.3744 19.5639 13.4583 19.3614C13.5421 19.1589 13.665 18.975 13.82 18.82L21.51 11.1333L28.0433 16.0333L33.7 8.96C33.8324 8.77748 34.0005 8.62372 34.194 8.50803C34.3876 8.39234 34.6026 8.31713 34.826 8.28695C35.0495 8.25677 35.2767 8.27225 35.4941 8.33245C35.7114 8.39265 35.9142 8.49632 36.0903 8.63718C36.2663 8.77804 36.412 8.95316 36.5184 9.15195C36.6249 9.35074 36.6898 9.56906 36.7095 9.79369C36.7291 10.0183 36.7029 10.2446 36.6325 10.4588C36.5621 10.673 36.449 10.8708 36.3 11.04L28.6267 20.6367L21.8233 15.5333L16.18 21.1767V21.18Z" fill="black"/>
</svg>
