<svg width="40" height="40" viewBox="0 0 40 40" fill="none" xmlns="http://www.w3.org/2000/svg">
<path d="M3.35334 11.4318C1.94396 11.4318 0.797363 10.2853 0.797363 8.87595C0.797363 7.46662 1.94398 6.32007 3.35334 6.32007C4.7626 6.32007 5.90911 7.46662 5.90911 8.87595C5.90911 10.2853 4.7626 11.4318 3.35334 11.4318ZM3.35334 7.70592C2.70816 7.70592 2.18324 8.2308 2.18324 8.87593C2.18324 9.52106 2.70814 10.0459 3.35334 10.0459C3.99842 10.0459 4.52324 9.52104 4.52324 8.87593C4.52324 8.23082 3.99842 7.70592 3.35334 7.70592Z" fill="black"/>
<path d="M24.9903 15.3451C23.5809 15.3451 22.4343 14.1986 22.4343 12.7894C22.4343 11.38 23.5809 10.2334 24.9903 10.2334C26.3996 10.2334 27.5461 11.38 27.5461 12.7894C27.546 14.1986 26.3995 15.3451 24.9903 15.3451ZM24.9903 11.6193C24.3451 11.6193 23.8202 12.1442 23.8202 12.7894C23.8202 13.4344 24.3451 13.9592 24.9903 13.9592C25.6354 13.9592 26.1602 13.4344 26.1602 12.7894C26.1602 12.1442 25.6354 11.6193 24.9903 11.6193Z" fill="black"/>
<path d="M14.1718 8.38193C11.8608 8.38193 9.98071 6.50187 9.98071 4.19096C9.98071 1.88006 11.8608 0 14.1718 0C16.4826 0 18.3626 1.88006 18.3626 4.19096C18.3626 6.50187 16.4826 8.38193 14.1718 8.38193ZM14.1718 1.38587C12.625 1.38587 11.3666 2.64423 11.3666 4.19096C11.3666 5.73769 12.625 6.99606 14.1718 6.99606C15.7184 6.99606 16.9767 5.73769 16.9767 4.19096C16.9767 2.64423 15.7184 1.38587 14.1718 1.38587Z" fill="black"/>
<path d="M35.809 8.38193C33.4981 8.38193 31.6179 6.50187 31.6179 4.19096C31.6179 1.88006 33.498 0 35.809 0C38.1198 0 39.9998 1.88006 39.9998 4.19096C39.9998 6.50187 38.1198 8.38193 35.809 8.38193ZM35.809 1.38587C34.2622 1.38587 33.0038 2.64423 33.0038 4.19096C33.0038 5.73769 34.2622 6.99606 35.809 6.99606C37.3556 6.99606 38.614 5.73769 38.614 4.19096C38.614 2.64423 37.3556 1.38587 35.809 1.38587Z" fill="black"/>
<path d="M11.1978 5.98122L10.5552 4.7533L4.89456 7.71585L5.53721 8.94378L11.1978 5.98122Z" fill="black"/>
<path d="M23.9504 11.4313L17.4565 5.99835L16.5672 7.0613L23.0611 12.4943L23.9504 11.4313Z" fill="black"/>
<path d="M27.0424 12.6987L26.1704 11.6215L32.767 6.28223L33.639 7.35941L27.0424 12.6987Z" fill="black"/>
<path d="M4.92616 39.4371H1.78039C0.798705 39.4371 0 38.6273 0 37.6321V16.6434C0 15.6482 0.798705 14.8385 1.78039 14.8385H4.92616C5.90784 14.8385 6.70653 15.6482 6.70653 16.6434V37.6321C6.70653 38.6273 5.90784 39.4371 4.92616 39.4371ZM1.78039 16.2244C1.56282 16.2244 1.38587 16.4123 1.38587 16.6434V37.6321C1.38587 37.8631 1.56282 38.0512 1.78039 38.0512H4.92616C5.14371 38.0512 5.32065 37.8632 5.32065 37.6321V16.6434C5.32065 16.4123 5.14369 16.2244 4.92616 16.2244H1.78039Z" fill="black"/>
<path d="M15.7445 39.4371H12.5986C11.617 39.4371 10.8184 38.5719 10.8184 37.5084V14.1831C10.8184 13.1196 11.617 12.2544 12.5986 12.2544H15.7445C16.7261 12.2544 17.5248 13.1196 17.5248 14.1831V37.5084C17.5248 38.5719 16.7262 39.4371 15.7445 39.4371ZM12.5986 13.6403C12.3848 13.6403 12.2042 13.8889 12.2042 14.1831V37.5084C12.2042 37.8027 12.3848 38.0512 12.5986 38.0512H15.7445C15.9583 38.0512 16.1389 37.8027 16.1389 37.5084V14.1831C16.1389 13.8889 15.9583 13.6403 15.7445 13.6403L12.5986 13.6403Z" fill="black"/>
<path d="M26.5631 39.437H23.4174C22.4357 39.437 21.637 38.733 21.637 37.8676V21.3232C21.637 20.4578 22.4357 19.7538 23.4174 19.7538H26.5631C27.5449 19.7538 28.3436 20.4578 28.3436 21.3232V37.8676C28.3436 38.733 27.5449 39.437 26.5631 39.437ZM23.4174 21.1397C23.1628 21.1397 23.0228 21.2775 23.0228 21.3232V37.8676C23.0228 37.9133 23.1628 38.0511 23.4174 38.0511H26.5631C26.8178 38.0511 26.9577 37.9133 26.9577 37.8676V21.3232C26.9577 21.2775 26.8178 21.1397 26.5631 21.1397H23.4174Z" fill="black"/>
<path d="M37.3817 39.4371H34.2358C33.2542 39.4371 32.4556 38.5719 32.4556 37.5084V14.1831C32.4556 13.1196 33.2542 12.2544 34.2358 12.2544H37.3817C38.3635 12.2544 39.1622 13.1196 39.1622 14.1831V37.5084C39.1622 38.5719 38.3635 39.4371 37.3817 39.4371ZM34.2358 13.6403C34.022 13.6403 33.8414 13.8889 33.8414 14.1831V37.5084C33.8414 37.8027 34.022 38.0512 34.2358 38.0512H37.3817C37.5957 38.0512 37.7763 37.8027 37.7763 37.5084V14.1831C37.7763 13.8889 37.5957 13.6403 37.3817 13.6403L34.2358 13.6403Z" fill="black"/>
</svg>
