<?xml version="1.0" encoding="utf-8"?>
<svg viewBox="0 0 500 500" xmlns="http://www.w3.org/2000/svg">
  <path fill-rule="evenodd" clip-rule="evenodd" fill="#0C598B" id="top" mask="url(#mymask)" d="M 260.257 158.64 C 267.416 144.29 279.598 136.605 295.028 134.056 C 318.499 130.179 339.686 135.721 358.183 150.618 C 359.697 151.836 359.831 153.042 358.58 154.597 C 356.531 157.145 354.455 159.669 352.359 162.178 C 350.926 163.892 349.666 163.976 347.935 162.528 C 340.996 156.718 333.354 152.1 324.495 149.734 C 313.374 146.767 302.183 146.042 291.099 149.854 C 283.987 152.301 278.125 156.442 274.992 163.415 C 272.482 168.999 272.546 174.684 274.476 180.584 C 276.658 187.25 281.67 190.867 287.589 193.663 C 296.179 197.721 305.425 199.725 314.688 201.653 C 325.615 203.925 336.33 206.83 346.011 212.549 C 355.434 218.116 361.701 225.94 363.306 236.818 C 366.124 255.92 357.094 271.771 339.567 279.887 C 329.217 284.679 318.238 285.804 306.945 285.22 C 288.838 284.282 272.867 277.967 258.676 267.05 C 257.494 266.142 256.312 264.622 255.078 264.57 C 253.966 264.523 252.787 266.108 251.632 266.965 C 240.771 275.026 228.508 279.774 215.119 281.879 C 209.069 282.83 202.972 283.038 196.861 283.038 C 182.226 283.038 167.591 283.04 152.955 283.037 C 149.744 283.037 149.103 282.408 149.102 279.289 C 149.101 275.384 149.134 271.476 149.08 267.569 C 149.065 266.547 149.269 266.131 150.436 266.149 C 155.089 266.215 159.744 266.176 164.398 266.173 C 165.077 266.173 165.731 266.075 165.843 267.071 C 165.907 267.649 166.546 267.492 166.965 267.489 C 179.914 267.401 192.879 267.948 205.808 267.233 C 219.677 266.467 232.361 262.168 243.118 253.258 C 254.535 243.8 260.767 231.577 262.462 217.114 C 263.792 205.762 262.513 194.711 257.51 184.274 C 249.832 168.257 236.899 158.344 219.769 153.446 C 213.329 151.603 206.722 150.852 200.022 150.852 C 189.2 150.852 178.377 150.846 167.555 150.866 C 166.823 150.867 165.805 150.436 165.684 151.818 C 165.644 152.263 165.029 152.111 164.66 152.113 C 159.838 152.122 155.015 152.094 150.193 152.139 C 149.279 152.147 149.076 151.851 149.085 151.011 C 149.124 146.72 149.082 142.426 149.112 138.135 C 149.126 136.184 150.016 135.342 152.023 135.34 C 169.014 135.33 186.011 135.054 202.993 135.409 C 222.057 135.807 239.453 141.326 254.345 153.421 C 256.367 155.062 258.254 156.865 260.257 158.64 Z"/>
  <mask id="mymask">
    <rect x="84.622" y="122.62" width="286" height="175" fill="white"/>
    <path d="M 279.981 207.496 C 284.118 209.358 288.167 210.895 292.31 212.198 C 300.055 214.634 308.068 215.961 315.955 217.812 C 322.82 219.423 329.464 221.583 335.872 224.598 C 352.454 232.403 350.596 253.82 339.852 262.513 C 333.836 267.381 326.918 269.901 319.297 270.62 C 299.315 272.507 281.835 266.731 266.749 253.803 C 266.084 253.233 265.77 252.9 266.429 251.991 C 275.732 239.168 279.952 224.78 279.98 209.126 C 279.982 208.651 279.981 208.175 279.981 207.496 Z"/>
    <path d="M 278.67 194.108 C 285.015 198.465 292.045 200.912 299.245 202.977 C 306.718 205.122 314.429 206.275 321.941 208.252 C 330.514 210.507 338.853 213.317 346.183 218.428 C 354.257 224.056 358.397 231.724 358.889 241.447 C 359.79 259.285 348.749 272.063 332.517 277.555 C 322.941 280.797 313.082 281.112 303.133 280.126 C 286.559 278.483 272.176 271.831 259.444 261.484 C 259.232 261.311 259.04 261.113 258.819 260.91 C 259.866 259.793 260.975 258.766 261.883 257.589 C 262.573 256.694 263.006 256.919 263.712 257.512 C 268.45 261.49 273.522 264.998 279.036 267.878 C 288.816 272.985 299.282 275.337 310.314 275.679 C 318.252 275.925 325.976 275.1 333.295 271.949 C 342.209 268.109 349.131 262.17 351.716 252.676 C 354.347 243.015 353.487 233.733 346.055 226.047 C 341.632 221.474 335.877 218.963 329.953 216.826 C 321.885 213.918 313.463 212.367 305.106 210.552 C 296.786 208.744 288.656 206.351 281.002 202.577 C 280.082 202.123 279.606 201.616 279.535 200.498 C 279.406 198.426 278.994 196.372 278.67 194.108 Z"/>
    <path d="M 268.387 168.749 C 266.89 166.774 265.565 165.031 264.246 163.284 C 263.779 162.666 264.239 162.132 264.458 161.6 C 267.925 153.2 274.153 147.332 282.21 143.241 C 291.252 138.649 300.96 137.409 311.033 137.739 C 326.359 138.244 340.051 143.034 352.232 152.139 C 353.297 152.935 353.424 153.444 352.509 154.381 C 351.544 155.371 350.861 157.11 349.773 157.363 C 348.64 157.629 347.538 155.996 346.429 155.189 C 332.502 145.058 316.827 141.197 299.722 142.967 C 290.597 143.911 282.35 147.124 275.793 153.727 C 271.723 157.825 269.277 162.732 268.387 168.749 Z"/>
  </mask>
  <path fill-rule="evenodd" clip-rule="evenodd" fill="#DEA428" d="M 141.686 204.002 C 158.621 204.002 175.554 204.016 192.489 203.976 C 193.946 203.972 194.376 204.149 193.664 205.622 C 192.515 208.002 191.49 210.446 190.557 212.919 C 190.15 213.996 189.578 214.266 188.466 214.264 C 174.56 214.225 160.654 214.239 146.748 214.239 C 128.244 214.239 109.739 214.211 91.236 214.286 C 89.462 214.294 89.077 213.785 89.179 212.183 C 89.319 209.992 89.306 207.779 89.181 205.584 C 89.103 204.217 89.616 203.972 90.885 203.976 C 103.109 204.019 115.332 204.002 127.557 204.002 C 132.267 204.002 136.977 204.002 141.686 204.002 Z"/>
  <path fill-rule="evenodd" clip-rule="evenodd" fill="#EEC41A" d="M 154.962 188.565 C 169.643 188.565 184.324 188.563 199.005 188.565 C 200.901 188.565 200.903 188.571 200.158 190.319 C 199.099 192.8 197.998 195.264 196.995 197.766 C 196.651 198.626 196.169 198.891 195.248 198.891 C 167.062 198.87 138.877 198.865 110.691 198.896 C 109.444 198.898 109.032 198.568 109.085 197.317 C 109.186 194.958 109.181 192.588 109.087 190.227 C 109.036 188.956 109.383 188.492 110.751 188.534 C 113.83 188.632 116.914 188.565 119.996 188.565 C 131.652 188.565 143.307 188.565 154.962 188.565 Z"/>
  <path fill-rule="evenodd" clip-rule="evenodd" fill="#4AB96F" d="M 167.457 173.2 C 180.179 173.2 192.9 173.219 205.621 173.173 C 207.093 173.167 207.482 173.352 206.772 174.82 C 205.598 177.247 204.618 179.764 203.603 182.263 C 203.28 183.059 202.906 183.46 201.916 183.459 C 177.426 183.428 152.937 183.428 128.447 183.455 C 127.355 183.456 127.145 183.049 127.165 182.101 C 127.217 179.627 127.265 177.148 127.149 174.678 C 127.087 173.356 127.611 173.171 128.79 173.175 C 141.679 173.214 154.568 173.2 167.457 173.2 Z"/>
  <path fill-rule="evenodd" clip-rule="evenodd" fill="#3796D3" d="M 187.724 219.47 C 186.301 222.828 184.962 226.013 183.602 229.19 C 183.24 230.034 182.44 229.691 181.828 229.692 C 171.237 229.712 160.648 229.707 150.057 229.707 C 137.057 229.707 124.057 229.671 111.058 229.749 C 109.373 229.761 108.983 229.278 109.078 227.73 C 109.216 225.485 109.196 223.22 109.082 220.971 C 109.017 219.681 109.484 219.442 110.7 219.445 C 124.316 219.486 137.933 219.47 151.549 219.47 C 162.924 219.47 174.299 219.47 185.674 219.47 C 186.28 219.47 186.886 219.47 187.724 219.47 Z"/>
  <path fill-rule="evenodd" clip-rule="evenodd" fill="#3796D3" d="M 214.012 157.733 C 212.583 161.097 211.245 164.228 209.93 167.368 C 209.644 168.051 209.084 167.967 208.529 167.967 C 206.006 167.967 203.482 167.967 200.959 167.967 C 182.232 167.967 163.505 167.946 144.778 168.006 C 143.246 168.011 142.89 167.585 142.963 166.172 C 143.083 163.866 143.074 161.547 142.964 159.242 C 142.903 157.972 143.334 157.701 144.566 157.705 C 159.48 157.747 174.394 157.733 189.308 157.733 C 197.435 157.733 205.561 157.733 214.012 157.733 Z"/>
  <path fill-rule="evenodd" clip-rule="evenodd" fill="#197697" d="M 181.045 235.182 C 179.721 238.289 178.373 241.411 177.063 244.546 C 176.696 245.426 175.963 245.157 175.343 245.158 C 170.073 245.178 164.802 245.169 159.531 245.169 C 149.27 245.169 139.01 245.148 128.749 245.196 C 127.511 245.203 127.094 244.922 127.146 243.654 C 127.251 241.128 127.195 238.594 127.167 236.064 C 127.159 235.352 127.261 234.967 128.151 234.971 C 145.7 235.009 163.249 235.018 180.797 235.037 C 180.84 235.039 180.882 235.086 181.045 235.182 Z"/>
  <path fill-rule="evenodd" clip-rule="evenodd" fill="#0F588B" d="M 174.544 250.453 C 173.1 253.846 171.777 256.92 170.487 260.007 C 170.255 260.563 169.905 260.696 169.335 260.696 C 160.871 260.68 152.407 260.678 143.943 260.696 C 143.202 260.699 142.976 260.424 142.981 259.731 C 143.005 256.924 143.003 254.12 142.982 251.314 C 142.977 250.692 143.185 250.442 143.845 250.444 C 153.986 250.457 164.126 250.453 174.544 250.453 Z"/>
</svg>