<svg width="50" height="53" viewBox="0 0 50 53" fill="none" xmlns="http://www.w3.org/2000/svg">
<path d="M40.2362 7.85222L32.9801 23.9586H30.8685L38.6073 6.8118H26.6587V46.7576C29.1203 46.848 41.6843 50.925 41.6843 50.925V52.8866H7.91377V50.7923C7.91377 50.7923 20.7566 46.7556 22.6913 46.7556V6.8118H11.1235L18.8642 23.9586H16.7526L9.49652 7.85222L2.24047 23.9586H0.128852L7.91377 6.71564V4.7271H20.9027C20.9027 2.12508 22.647 0 24.6817 0C26.8337 0 28.4607 2.24624 28.4607 4.7271H41.6881V6.43294L49.6038 23.9586H47.4922L40.2362 7.85222ZM18.9969 25.9221C18.9969 31.1012 15.4044 36.0802 9.49844 36.0802C3.72514 36.0802 1.45993e-07 31.1012 1.45993e-07 25.9221C-0.001923 25.9298 18.9969 25.9298 18.9969 25.9221ZM31.0012 25.9221C31.0012 25.9318 50 25.9318 50 25.9221C50 31.1012 46.4076 36.0802 40.5016 36.0802C34.7263 36.0802 31.0012 31.1012 31.0012 25.9221Z" fill="black"/>
</svg>
