<svg width="50" height="35" viewBox="0 0 50 35" fill="none" xmlns="http://www.w3.org/2000/svg">
<path d="M50 20.3C50 18.3741 48.6619 16.7622 46.8653 16.3393C44.5022 6.97951 35.5961 0 25 0C7.97847 0 3.32122 14.5784 2.92553 16.3946C1.23511 16.889 0 18.4497 0 20.3C0 22.5475 1.82191 24.3698 4.06957 24.3698C6.31736 24.3698 8.13927 22.5475 8.13927 20.3C8.13927 18.8372 7.36697 17.5553 6.20846 16.8381C6.20846 16.8381 8.41496 7.83202 18.0231 7.83202C23.8491 7.83202 28.74 11.6399 30.0128 16.7357C28.7575 17.4287 27.9072 18.7647 27.9072 20.3C27.9072 22.5475 29.7291 24.3698 31.9768 24.3698C34.2246 24.3698 36.0463 22.5475 36.0463 20.3C36.0463 18.4497 34.8115 16.8892 33.1209 16.3946C31.6724 9.74499 25.4533 4.7311 18.0231 4.7311C17.6436 4.7311 17.2671 4.7447 16.8943 4.77039C19.3618 3.69945 22.1075 3.10067 25 3.10067C34.0495 3.10067 41.6694 8.95348 43.7914 16.8379C42.633 17.5551 41.8607 18.8371 41.8607 20.2998C41.8607 21.7695 42.6401 23.057 43.8078 23.7725C42.2302 28.4371 37.5627 31.8278 32.0643 31.8278C26.5298 31.8278 21.8372 28.392 20.2902 23.6796C21.3771 22.9491 22.0924 21.7078 22.0924 20.2998C22.0924 18.0522 20.2705 16.23 18.0227 16.23C15.7751 16.23 13.9532 18.0522 13.9532 20.2998C13.9532 22.2767 15.363 23.9233 17.2315 24.2917C19.067 30.4242 25.022 34.9287 32.0645 34.9287C39.1231 34.9287 45.0884 30.4039 46.9091 24.2503C48.6841 23.8119 50 22.2098 50 20.3Z" fill="black"/>
</svg>
