<svg width="44" height="44" viewBox="0 0 44 44" fill="none" xmlns="http://www.w3.org/2000/svg">
<path d="M10.8889 33.1111V22M19.7778 33.1111V28.6667M42 28.6667L35.7111 22.3778M24.2223 17.5556C24.2223 18.8741 24.6132 20.1631 25.3458 21.2594C26.0783 22.3557 27.1195 23.2102 28.3377 23.7148C29.5559 24.2194 30.8963 24.3514 32.1895 24.0942C33.4827 23.8369 34.6706 23.202 35.603 22.2696C36.5353 21.3373 37.1703 20.1494 37.4275 18.8562C37.6847 17.563 37.5527 16.2225 37.0481 15.0044C36.5435 13.7862 35.689 12.745 34.5927 12.0125C33.4964 11.2799 32.2075 10.8889 30.8889 10.8889C29.1208 10.8889 27.4251 11.5913 26.1749 12.8415C24.9246 14.0918 24.2223 15.7875 24.2223 17.5556Z" stroke="black" stroke-width="4" stroke-linecap="round" stroke-linejoin="round"/>
<path d="M33.1111 33.1111V39.7778C33.1111 40.3672 32.877 40.9324 32.4602 41.3491C32.0435 41.7659 31.4783 42 30.8889 42H4.22222C3.63285 42 3.06762 41.7659 2.65087 41.3491C2.23413 40.9324 2 40.3672 2 39.7778V4.22222C2 3.63285 2.23413 3.06762 2.65087 2.65087C3.06762 2.23413 3.63285 2 4.22222 2H30.8889" stroke="black" stroke-width="4" stroke-linecap="round" stroke-linejoin="round"/>
</svg>
