<svg width="50" height="51" viewBox="0 0 50 51" fill="none" xmlns="http://www.w3.org/2000/svg">
<path d="M50 3.34977V23.452C50 24.0244 49.5371 24.489 48.963 24.489H21.6211C21.0488 24.489 20.5841 24.0244 20.5841 23.452V21.8641L22.6582 20.4736V22.415H47.9241V4.38503H22.6564V11.9727C22.5649 12.0427 22.4662 12.1037 22.3801 12.1826L22.0894 12.3836C21.7395 11.4685 21.2067 10.7473 20.5841 10.1552V3.34977C20.5841 2.77742 21.0506 2.31273 21.6211 2.31273H48.963C49.5371 2.31273 50 2.77563 50 3.34977ZM25.5181 16.9749L26.7597 16.1424H26.7579C26.7597 16.1352 26.7633 16.1352 26.7669 16.1299C27.3984 15.5037 27.4953 14.5725 27.1042 13.8387L37.1499 7.0225L36.6942 6.34968L26.5641 13.2215C26.2466 12.9918 25.8913 12.8465 25.5181 12.8339C24.987 12.816 24.447 12.9954 24.0415 13.4027C24.0415 13.4027 24.0325 13.4134 24.0289 13.4134L23.7813 13.5857L21.5314 15.1215V14.4684C21.1134 9.50029 15.3558 9.57386 15.3558 9.57386H12.8618L10.7662 13.0223L8.65981 9.57565H6.26814C-0.228657 9.69766 0.00100132 14.4684 0.00100132 14.4684V25.6032H0.00458972C0.00638393 25.632 0.00100132 25.666 0.00100132 25.6894C0.00100132 26.7497 0.856835 27.602 1.91362 27.602C2.96682 27.602 3.82265 26.7462 3.82265 25.6894C3.82265 25.666 3.82265 25.632 3.81906 25.6032H3.82265V15.3045H5.01759L5.00323 47.7491C5.00323 49.1755 6.16229 50.3345 7.58329 50.3345C9.00968 50.3345 10.1651 49.1755 10.1651 47.7491V26.8107H11.3152V47.7724L11.3368 47.7957C11.3547 49.197 12.4958 50.3345 13.9061 50.3345C15.3217 50.3345 16.4736 49.1808 16.4736 47.7652L16.4664 15.2507H17.7098V18.6382C17.7098 18.6417 17.7098 18.6507 17.7098 18.6543C17.7098 19.7075 18.5656 20.5651 19.617 20.5651C19.9274 20.5651 20.2055 20.4772 20.4692 20.3409L20.4782 20.3534L23.7795 18.1394L25.5181 16.9749ZM10.7285 8.74494C13.1435 8.74494 15.101 6.78746 15.101 4.37247C15.101 1.95747 13.1435 0 10.7285 0C8.31353 0 6.35606 1.95927 6.35606 4.37247C6.35606 6.78567 8.31353 8.74494 10.7285 8.74494Z" fill="black"/>
</svg>
